<svg width="224" height="264" viewBox="0 0 224 264" fill="none" xmlns="http://www.w3.org/2000/svg">
<path d="M83.4555 36.3689L84.8525 259.886C84.8589 260.745 85.206 261.566 85.8178 262.169C86.4297 262.773 87.2562 263.109 88.1161 263.105L220.627 262.277C221.487 262.27 222.309 261.924 222.913 261.312C223.517 260.701 223.854 259.876 223.85 259.017L222.453 35.5001C222.446 34.6413 222.099 33.82 221.487 33.2166C220.876 32.6131 220.049 32.2766 219.189 32.281L86.6785 33.1093C85.8186 33.1157 84.9964 33.4624 84.3922 34.0735C83.788 34.6846 83.4511 35.5101 83.4555 36.3689V36.3689Z" fill="white"/>
<path d="M83.4555 36.3689L84.8525 259.886C84.8589 260.745 85.206 261.566 85.8178 262.169C86.4297 262.773 87.2562 263.109 88.1161 263.105L220.627 262.277C221.487 262.27 222.309 261.924 222.913 261.312C223.517 260.701 223.854 259.876 223.85 259.017L222.453 35.5001C222.446 34.6413 222.099 33.82 221.487 33.2166C220.876 32.6131 220.049 32.2766 219.189 32.281L86.6785 33.1093C85.8186 33.1157 84.9964 33.4624 84.3922 34.0735C83.788 34.6846 83.4511 35.5101 83.4555 36.3689V36.3689Z" fill="white"/>
<path d="M83.4555 36.3689L84.8525 259.886C84.8589 260.745 85.206 261.566 85.8178 262.169C86.4297 262.773 87.2562 263.109 88.1161 263.105L220.627 262.277C221.487 262.27 222.309 261.924 222.913 261.312C223.517 260.701 223.854 259.876 223.85 259.017L222.453 35.5001C222.446 34.6413 222.099 33.82 221.487 33.2166C220.876 32.6131 220.049 32.2766 219.189 32.281L86.6785 33.1093C85.8186 33.1157 84.9964 33.4624 84.3922 34.0735C83.788 34.6846 83.4511 35.5101 83.4555 36.3689V36.3689ZM219.195 33.2066C219.809 33.2029 220.4 33.4431 220.837 33.8743C221.274 34.3054 221.522 34.8923 221.526 35.5059L222.923 259.023C222.927 259.636 222.686 260.226 222.255 260.663C221.823 261.099 221.235 261.347 220.621 261.351L88.1103 262.179C87.4959 262.183 86.9053 261.943 86.4682 261.511C86.0311 261.08 85.7833 260.493 85.7792 259.88L84.3821 36.3631C84.3785 35.7496 84.619 35.1596 85.0507 34.7231C85.4824 34.2865 86.0699 34.0389 86.6843 34.0348L219.195 33.2066Z" fill="#3F3D56"/>
<path d="M103.249 237.946C103.256 239.112 102.937 240.254 102.333 241.228C101.728 242.201 100.864 242.963 99.8509 243.415C98.8378 243.868 97.7206 243.992 96.6407 243.771C95.5607 243.55 94.5665 242.995 93.7838 242.175C93.0011 241.355 92.465 240.308 92.2433 239.165C92.0217 238.022 92.1243 236.836 92.5384 235.756C92.9525 234.675 93.6594 233.75 94.5696 233.096C95.4799 232.443 96.5527 232.09 97.6523 232.083C99.1269 232.074 100.545 232.686 101.595 233.786C102.644 234.885 103.239 236.382 103.249 237.946V237.946ZM93.0559 238.009C93.062 238.981 93.3397 239.93 93.8539 240.735C94.368 241.54 95.0956 242.165 95.9445 242.532C96.7934 242.898 97.7256 242.99 98.6232 242.795C99.5208 242.599 100.343 242.126 100.987 241.435C101.631 240.744 102.067 239.865 102.239 238.911C102.412 237.956 102.314 236.969 101.958 236.073C101.602 235.177 101.003 234.413 100.238 233.878C99.4724 233.343 98.5749 233.06 97.6585 233.066C97.05 233.07 96.4483 233.201 95.8878 233.451C95.3272 233.702 94.8187 234.067 94.3913 234.526C93.9639 234.985 93.626 235.529 93.3969 236.126C93.1678 236.724 93.0519 237.364 93.0559 238.009V238.009Z" fill="#3DD2F1"/>
<path d="M97.2792 246.515C96.2186 246.521 95.1825 246.203 94.3151 245.604C93.4478 245.005 92.7923 244.155 92.4402 243.174C92.1801 243.929 92.1076 244.734 92.2287 245.522C92.3498 246.31 92.661 247.059 93.1364 247.705C93.6118 248.351 94.2377 248.876 94.9619 249.237C95.686 249.597 96.4875 249.783 97.2996 249.778C98.1117 249.773 98.9108 249.577 99.6304 249.208C100.35 248.838 100.969 248.305 101.437 247.653C101.904 247.001 102.206 246.249 102.317 245.459C102.428 244.669 102.346 243.865 102.076 243.113C101.736 244.1 101.091 244.957 100.232 245.567C99.3718 246.177 98.3398 246.508 97.2792 246.515V246.515Z" fill="#3DD2F1"/>
<path d="M162.414 215.091C162.42 216.166 161.996 217.2 161.236 217.964C160.476 218.729 159.442 219.163 158.361 219.171L146.126 219.248C145.046 219.253 144.007 218.832 143.238 218.077C142.47 217.321 142.035 216.293 142.028 215.219C142.021 214.144 142.444 213.111 143.203 212.346C143.962 211.581 144.995 211.147 146.076 211.139L158.311 211.062C159.392 211.057 160.431 211.478 161.2 212.233C161.97 212.989 162.406 214.016 162.414 215.091V215.091Z" fill="#3DD2F1"/>
<path d="M162.345 204.034C162.35 205.109 161.927 206.142 161.167 206.907C160.407 207.672 159.373 208.106 158.292 208.114L146.057 208.19C144.977 208.196 143.938 207.775 143.169 207.019C142.401 206.264 141.965 205.236 141.959 204.161C141.952 203.087 142.375 202.054 143.134 201.289C143.893 200.524 144.926 200.09 146.007 200.081L158.241 200.005C159.323 199.999 160.362 200.421 161.131 201.176C161.901 201.931 162.337 202.959 162.345 204.034V204.034Z" fill="#3DD2F1"/>
<path d="M162.276 192.976C162.281 194.051 161.858 195.085 161.098 195.849C160.338 196.614 159.304 197.048 158.223 197.056L145.988 197.133C144.907 197.138 143.869 196.717 143.1 195.962C142.332 195.206 141.896 194.178 141.89 193.104C141.883 192.029 142.305 190.996 143.064 190.231C143.823 189.466 144.857 189.032 145.938 189.024L158.172 188.947C159.254 188.942 160.293 189.363 161.062 190.118C161.831 190.874 162.268 191.901 162.276 192.976V192.976Z" fill="#3DD2F1"/>
<path d="M162.17 176.022C162.175 177.097 161.752 178.13 160.992 178.895C160.232 179.659 159.198 180.094 158.117 180.101L145.882 180.178C144.802 180.183 143.763 179.762 142.994 179.007C142.226 178.251 141.79 177.223 141.784 176.149C141.777 175.075 142.199 174.041 142.958 173.276C143.717 172.511 144.751 172.077 145.832 172.069L158.066 171.993C159.148 171.987 160.187 172.408 160.956 173.164C161.725 173.919 162.162 174.947 162.17 176.022V176.022Z" fill="#3DD2F1"/>
<path d="M162.098 164.596C162.105 165.768 161.682 166.895 160.922 167.729C160.163 168.563 159.129 169.036 158.048 169.044L145.813 169.121C144.732 169.126 143.693 168.666 142.924 167.841C142.156 167.017 141.72 165.895 141.712 164.723C141.705 163.551 142.127 162.424 142.885 161.59C143.644 160.756 144.677 160.283 145.758 160.275L157.993 160.198C159.074 160.193 160.113 160.653 160.883 161.477C161.653 162.301 162.09 163.423 162.098 164.596V164.596Z" fill="#3DD2F1"/>
<path d="M162.029 153.538C162.035 154.711 161.612 155.838 160.853 156.672C160.094 157.506 159.06 157.979 157.979 157.987L145.744 158.063C144.663 158.068 143.624 157.608 142.855 156.784C142.086 155.959 141.65 154.838 141.643 153.666C141.636 152.493 142.058 151.367 142.816 150.532C143.575 149.698 144.608 149.225 145.689 149.217L157.923 149.141C159.005 149.135 160.044 149.595 160.814 150.42C161.584 151.244 162.021 152.366 162.029 153.538V153.538Z" fill="#3DD2F1"/>
<path d="M161.921 136.215C161.927 137.29 161.503 138.323 160.743 139.088C159.983 139.853 158.949 140.287 157.868 140.295L145.633 140.371C144.553 140.377 143.514 139.955 142.745 139.2C141.977 138.444 141.542 137.417 141.535 136.342C141.528 135.268 141.951 134.234 142.71 133.469C143.469 132.705 144.502 132.27 145.583 132.262L157.818 132.186C158.899 132.18 159.938 132.601 160.707 133.357C161.477 134.112 161.913 135.14 161.921 136.215V136.215Z" fill="#3DD2F1"/>
<path d="M161.852 125.157C161.857 126.232 161.434 127.265 160.674 128.03C159.914 128.795 158.88 129.229 157.799 129.237L145.564 129.314C144.484 129.319 143.445 128.898 142.676 128.142C141.908 127.387 141.472 126.359 141.466 125.285C141.459 124.21 141.882 123.177 142.641 122.412C143.4 121.647 144.433 121.213 145.514 121.205L157.748 121.128C158.83 121.123 159.869 121.544 160.638 122.299C161.407 123.055 161.844 124.082 161.852 125.157Z" fill="#3DD2F1"/>
<path d="M161.783 114.1C161.788 115.175 161.365 116.208 160.605 116.973C159.845 117.738 158.811 118.172 157.73 118.18L145.495 118.256C144.414 118.262 143.376 117.84 142.607 117.085C141.839 116.33 141.403 115.302 141.397 114.227C141.39 113.153 141.812 112.12 142.571 111.355C143.33 110.59 144.364 110.155 145.445 110.147L157.679 110.071C158.761 110.065 159.8 110.486 160.569 111.242C161.338 111.997 161.775 113.025 161.783 114.1V114.1Z" fill="#3DD2F1"/>
<path d="M161.677 97.145C161.682 98.2199 161.259 99.2531 160.499 100.018C159.739 100.783 158.705 101.217 157.624 101.225L145.389 101.301C144.309 101.307 143.27 100.886 142.501 100.13C141.733 99.3747 141.297 98.3469 141.291 97.2724C141.284 96.1979 141.706 95.1647 142.465 94.3998C143.224 93.6348 144.258 93.2006 145.339 93.1925L157.573 93.1161C158.655 93.1105 159.694 93.5316 160.463 94.2869C161.232 95.0422 161.669 96.0701 161.677 97.145V97.145Z" fill="#3DD2F1"/>
<path d="M161.608 86.0875C161.613 87.1624 161.19 88.1957 160.43 88.9605C159.67 89.7254 158.636 90.1594 157.555 90.1674L145.32 90.2439C144.239 90.2494 143.201 89.8281 142.432 89.0726C141.664 88.3172 141.228 87.2894 141.221 86.2149C141.215 85.1405 141.637 84.1073 142.396 83.3423C143.155 82.5773 144.189 82.1431 145.269 82.1351L157.504 82.0586C158.585 82.0531 159.625 82.4741 160.394 83.2294C161.163 83.9847 161.6 85.0126 161.608 86.0875V86.0875Z" fill="#3DD2F1"/>
<path d="M161.539 75.03C161.544 76.1049 161.121 77.1381 160.361 77.903C159.601 78.6679 158.567 79.1019 157.486 79.1099L145.251 79.1864C144.17 79.1918 143.132 78.7706 142.363 78.0151C141.595 77.2597 141.159 76.2319 141.152 75.1574C141.146 74.083 141.568 73.0498 142.327 72.2848C143.086 71.5198 144.12 71.0856 145.2 71.0776L157.435 71.0011C158.516 70.9956 159.556 71.4166 160.325 72.1719C161.094 72.9272 161.531 73.9551 161.539 75.03V75.03Z" fill="#3DD2F1"/>
<path d="M208.568 186.271L208.943 246.273C208.946 246.641 208.877 247.007 208.739 247.348C208.602 247.689 208.399 248 208.143 248.263C207.886 248.525 207.581 248.734 207.244 248.877C206.908 249.02 206.546 249.095 206.181 249.097C205.815 249.1 205.453 249.029 205.115 248.89C204.776 248.751 204.468 248.546 204.209 248.287C203.949 248.028 203.742 247.72 203.6 247.38C203.459 247.04 203.385 246.676 203.383 246.307L203.008 186.306C203.005 185.563 203.294 184.85 203.812 184.322C204.33 183.793 205.034 183.494 205.771 183.49C206.507 183.485 207.216 183.775 207.74 184.297C208.265 184.819 208.562 185.529 208.568 186.271V186.271Z" fill="#E6E6E6"/>
<path d="M196.642 205.532L196.777 227.171C196.782 227.918 196.493 228.637 195.975 229.169C195.457 229.7 194.752 230.002 194.015 230.006C193.277 230.011 192.568 229.718 192.044 229.193C191.519 228.668 191.222 227.953 191.217 227.206L191.082 205.566C191.077 204.819 191.365 204.101 191.884 203.569C192.402 203.037 193.107 202.736 193.844 202.731C194.581 202.727 195.29 203.019 195.815 203.544C196.34 204.069 196.637 204.784 196.642 205.532Z" fill="#E6E6E6"/>
<path d="M111.239 33.693L112.668 262.214L113.594 262.208L112.166 33.6872L111.239 33.693Z" fill="#3F3D56"/>
<path opacity="0.15" d="M186.595 228.962C186.541 229.166 185.232 233.981 181.495 235.53C178.983 236.571 176.031 235.868 172.722 233.439L173.354 232.341C176.336 234.529 178.938 235.189 181.087 234.302C184.277 232.986 185.471 228.629 185.482 228.585L186.595 228.962Z" fill="black"/>
<path d="M140.989 228.632L139.954 4.20925C139.949 3.34693 139.603 2.52177 138.992 1.91482C138.381 1.30787 137.555 0.968702 136.695 0.971702L4.17141 1.58293C3.31144 1.58782 2.48853 1.93459 1.88325 2.54716C1.27797 3.15973 0.939751 3.98806 0.942809 4.8504L1.9779 229.273C1.98284 230.136 2.32872 230.961 2.93962 231.568C3.55051 232.175 4.37654 232.514 5.2365 232.511L137.76 231.9C138.62 231.895 139.443 231.548 140.049 230.935C140.654 230.323 140.992 229.494 140.989 228.632V228.632Z" fill="white"/>
<path d="M140.989 228.632L139.954 4.20925C139.949 3.34693 139.603 2.52177 138.992 1.91482C138.381 1.30787 137.555 0.968702 136.695 0.971702L4.17141 1.58293C3.31144 1.58782 2.48853 1.93459 1.88325 2.54716C1.27797 3.15973 0.939751 3.98806 0.942809 4.8504L1.9779 229.273C1.98284 230.136 2.32872 230.961 2.93962 231.568C3.55051 232.175 4.37654 232.514 5.2365 232.511L137.76 231.9C138.62 231.895 139.443 231.548 140.049 230.935C140.654 230.323 140.992 229.494 140.989 228.632V228.632Z" fill="#FF6915" fill-opacity="0.64"/>
<path d="M140.989 228.632L139.954 4.20925C139.949 3.34693 139.603 2.52177 138.992 1.91482C138.381 1.30787 137.555 0.968702 136.695 0.971702L4.17141 1.58293C3.31144 1.58782 2.48853 1.93459 1.88325 2.54716C1.27797 3.15973 0.939751 3.98806 0.942809 4.8504L1.9779 229.273C1.98284 230.136 2.32872 230.961 2.93962 231.568C3.55051 232.175 4.37654 232.514 5.2365 232.511L137.76 231.9C138.62 231.895 139.443 231.548 140.049 230.935C140.654 230.323 140.992 229.494 140.989 228.632V228.632ZM5.23221 231.582C4.61781 231.584 4.02752 231.342 3.59107 230.908C3.15461 230.475 2.90772 229.885 2.90466 229.269L1.86957 4.84613C1.86695 4.23004 2.10839 3.63813 2.54083 3.20049C2.97326 2.76285 3.5613 2.51526 4.17569 2.5122L136.7 1.90097C137.314 1.8984 137.904 2.14056 138.341 2.57419C138.777 3.00781 139.024 3.59745 139.027 4.21352L140.062 228.636C140.065 229.252 139.823 229.844 139.391 230.282C138.959 230.72 138.371 230.967 137.756 230.97L5.23221 231.582Z" fill="#3F3D56"/>
<path d="M121.52 26.2076C121.515 25.0364 121.836 23.8901 122.442 22.9135C123.049 21.937 123.914 21.174 124.928 20.7211C125.942 20.2683 127.059 20.1459 128.139 20.3694C129.218 20.5929 130.212 21.1522 130.993 21.9768C131.775 22.8013 132.309 23.8539 132.529 25.0016C132.749 26.1492 132.644 27.3403 132.228 28.4242C131.812 29.5081 131.104 30.4362 130.193 31.0911C129.281 31.7459 128.208 32.0982 127.108 32.1033C125.633 32.1101 124.216 31.4927 123.168 30.3871C122.12 29.2814 121.527 27.778 121.52 26.2076V26.2076ZM131.714 26.1606C131.71 25.1846 131.434 24.2318 130.921 23.4227C130.408 22.6136 129.681 21.9845 128.833 21.6149C127.984 21.2453 127.052 21.1519 126.154 21.3465C125.256 21.541 124.433 22.0148 123.788 22.7079C123.143 23.4009 122.706 24.2822 122.532 25.2402C122.357 26.1982 122.454 27.19 122.808 28.09C123.163 28.99 123.761 29.7579 124.525 30.2966C125.29 30.8353 126.187 31.1206 127.103 31.1163C127.712 31.1135 128.314 30.9831 128.875 30.7326C129.436 30.482 129.945 30.1162 130.373 29.656C130.801 29.1958 131.14 28.6502 131.37 28.0505C131.6 27.4508 131.717 26.8086 131.714 26.1606V26.1606Z" fill="#3DD2F1"/>
<path d="M127.505 17.6137C128.565 17.609 129.601 17.9304 130.467 18.5332C131.334 19.136 131.988 19.9902 132.339 20.9767C132.6 20.2189 132.674 19.4105 132.554 18.6188C132.434 17.8272 132.124 17.0753 131.65 16.4258C131.175 15.7762 130.55 15.2478 129.826 14.8845C129.103 14.5213 128.302 14.3337 127.489 14.3374C126.677 14.3412 125.878 14.5362 125.157 14.9061C124.437 15.276 123.817 15.8101 123.349 16.4641C122.88 17.118 122.577 17.8727 122.465 18.6654C122.352 19.4581 122.433 20.2658 122.702 21.0212C123.043 20.0314 123.689 19.1713 124.55 18.5605C125.411 17.9497 126.444 17.6188 127.505 17.6137V17.6137Z" fill="#3DD2F1"/>
<path d="M62.3129 49.0558C62.3092 47.9765 62.7345 46.9397 63.4956 46.173C64.2567 45.4063 65.2914 44.9723 66.3728 44.966L78.6087 44.9096C79.6896 44.9059 80.7277 45.3306 81.4951 46.0904C82.2624 46.8501 82.6962 47.8829 82.7012 48.9617C82.7062 50.0406 82.2819 51.0772 81.5216 51.8441C80.7613 52.6109 79.7271 53.0451 78.6462 53.0514L66.4103 53.1079C65.329 53.1116 64.2903 52.6871 63.5221 51.9275C62.754 51.1678 62.3191 50.135 62.3129 49.0558V49.0558Z" fill="#3DD2F1"/>
<path d="M62.3641 60.1581C62.3604 59.0788 62.7857 58.042 63.5468 57.2753C64.3079 56.5086 65.3426 56.0746 66.424 56.0683L78.6599 56.0119C79.7408 56.0082 80.7789 56.4329 81.5463 57.1927C82.3136 57.9525 82.7474 58.9852 82.7524 60.064C82.7574 61.1429 82.3331 62.1796 81.5728 62.9464C80.8125 63.7132 79.7783 64.1475 78.6974 64.1537L66.4615 64.2102C65.3802 64.2139 64.3415 63.7894 63.5733 63.0298C62.8052 62.2701 62.3703 61.2374 62.3641 60.1581V60.1581Z" fill="#3DD2F1"/>
<path d="M62.4153 71.2604C62.4116 70.1811 62.8369 69.1443 63.598 68.3776C64.3591 67.6109 65.3938 67.1769 66.4752 67.1706L78.7111 67.1142C79.792 67.1105 80.8301 67.5352 81.5975 68.295C82.3648 69.0548 82.7986 70.0875 82.8036 71.1663C82.8086 72.2452 82.3843 73.2819 81.624 74.0487C80.8637 74.8155 79.8295 75.2497 78.7486 75.256L66.5127 75.3125C65.4314 75.3162 64.3927 74.8917 63.6245 74.1321C62.8564 73.3724 62.4215 72.3397 62.4153 71.2604V71.2604Z" fill="#3DD2F1"/>
<path d="M62.4938 88.2839C62.4901 87.2046 62.9154 86.1679 63.6765 85.4012C64.4376 84.6345 65.4723 84.2004 66.5537 84.1942L78.7896 84.1377C79.8705 84.134 80.9086 84.5587 81.676 85.3185C82.4433 86.0783 82.8772 87.111 82.8821 88.1899C82.8871 89.2687 82.4628 90.3054 81.7025 91.0722C80.9422 91.839 79.908 92.2733 78.8272 92.2796L66.5912 92.336C65.5099 92.3397 64.4712 91.9152 63.7031 91.1556C62.9349 90.3959 62.5 89.3632 62.4938 88.2839V88.2839Z" fill="#3DD2F1"/>
<path d="M62.5467 99.7563C62.5426 98.5789 62.9674 97.4481 63.7282 96.612C64.489 95.7759 65.5236 95.3028 66.6049 95.2965L78.8408 95.24C79.9217 95.2365 80.96 95.7002 81.7277 96.5294C82.4954 97.3585 82.9296 98.4853 82.935 99.6622C82.9405 100.839 82.5166 101.97 81.7566 102.806C80.9966 103.642 79.9626 104.116 78.8818 104.122L66.6459 104.178C65.5645 104.182 64.5256 103.719 63.7572 102.89C62.9887 102.061 62.5534 100.934 62.5467 99.7563V99.7563Z" fill="#3DD2F1"/>
<path d="M62.5979 110.859C62.5938 109.681 63.0186 108.55 63.7794 107.714C64.5402 106.878 65.5748 106.405 66.6561 106.399L78.892 106.342C79.9729 106.339 81.0112 106.802 81.7789 107.632C82.5466 108.461 82.9808 109.588 82.9862 110.765C82.9917 111.941 82.5678 113.072 81.8078 113.908C81.0479 114.745 80.0138 115.218 78.933 115.224L66.6971 115.281C65.6157 115.284 64.5768 114.821 63.8084 113.992C63.0399 113.163 62.6046 112.036 62.5979 110.859V110.859Z" fill="#3DD2F1"/>
<path d="M62.6782 128.252C62.6744 127.173 63.0998 126.136 63.8609 125.369C64.622 124.603 65.6567 124.169 66.738 124.162L78.9739 124.106C80.0548 124.102 81.093 124.527 81.8603 125.287C82.6277 126.047 83.0615 127.079 83.0665 128.158C83.0715 129.237 82.6472 130.274 81.8869 131.04C81.1265 131.807 80.0924 132.242 79.0115 132.248L66.7756 132.304C65.6942 132.308 64.6555 131.883 63.8874 131.124C63.1193 130.364 62.6844 129.331 62.6782 128.252V128.252Z" fill="#3DD2F1"/>
<path d="M62.7294 139.354C62.7256 138.275 63.151 137.238 63.9121 136.472C64.6732 135.705 65.7079 135.271 66.7892 135.265L79.0251 135.208C80.106 135.205 81.1442 135.629 81.9115 136.389C82.6789 137.149 83.1127 138.182 83.1177 139.26C83.1227 140.339 82.6984 141.376 81.9381 142.143C81.1778 142.91 80.1436 143.344 79.0627 143.35L66.8268 143.407C65.7454 143.41 64.7067 142.986 63.9386 142.226C63.1705 141.467 62.7356 140.434 62.7294 139.354Z" fill="#3DD2F1"/>
<path d="M62.7806 150.457C62.7768 149.377 63.2022 148.341 63.9633 147.574C64.7244 146.807 65.7591 146.373 66.8404 146.367L79.0764 146.311C80.1572 146.307 81.1954 146.732 81.9627 147.491C82.7301 148.251 83.1639 149.284 83.1689 150.363C83.1739 151.442 82.7496 152.478 81.9893 153.245C81.229 154.012 80.1948 154.446 79.1139 154.452L66.878 154.509C65.7966 154.513 64.758 154.088 63.9898 153.328C63.2217 152.569 62.7868 151.536 62.7806 150.457V150.457Z" fill="#3DD2F1"/>
<path d="M62.8591 167.48C62.8554 166.401 63.2807 165.364 64.0418 164.598C64.8029 163.831 65.8376 163.397 66.919 163.391L79.1549 163.334C80.2358 163.33 81.2739 163.755 82.0413 164.515C82.8086 165.275 83.2424 166.307 83.2474 167.386C83.2524 168.465 82.8281 169.502 82.0678 170.269C81.3075 171.035 80.2733 171.47 79.1924 171.476L66.9565 171.532C65.8752 171.536 64.8365 171.112 64.0683 170.352C63.3002 169.592 62.8653 168.56 62.8591 167.48V167.48Z" fill="#3DD2F1"/>
<path d="M62.9103 178.583C62.9066 177.503 63.3319 176.467 64.093 175.7C64.8541 174.933 65.8888 174.499 66.9702 174.493L79.2061 174.436C80.287 174.433 81.3251 174.858 82.0925 175.617C82.8598 176.377 83.2936 177.41 83.2986 178.489C83.3036 179.567 82.8793 180.604 82.119 181.371C81.3587 182.138 80.3245 182.572 79.2436 182.578L67.0077 182.635C65.9264 182.638 64.8877 182.214 64.1195 181.454C63.3514 180.695 62.9165 179.662 62.9103 178.583V178.583Z" fill="#3DD2F1"/>
<path d="M62.9615 189.685C62.9578 188.606 63.3831 187.569 64.1442 186.802C64.9053 186.036 65.94 185.601 67.0214 185.595L79.2573 185.539C80.3382 185.535 81.3763 185.96 82.1437 186.72C82.911 187.479 83.3448 188.512 83.3498 189.591C83.3548 190.67 82.9305 191.706 82.1702 192.473C81.4099 193.24 80.3757 193.674 79.2948 193.681L67.0589 193.737C65.9776 193.741 64.9389 193.316 64.1707 192.557C63.4026 191.797 62.9677 190.764 62.9615 189.685V189.685Z" fill="#3DD2F1"/>
<path d="M16.108 77.9157L15.8301 17.6712C15.8279 17.3013 15.8977 16.9345 16.0356 16.5919C16.1735 16.2493 16.3768 15.9376 16.6338 15.6746C16.8908 15.4116 17.1965 15.2025 17.5334 15.0592C17.8704 14.916 18.2319 14.8414 18.5973 14.8397C18.9628 14.838 19.325 14.9092 19.6632 15.0494C20.0015 15.1895 20.3091 15.3958 20.5685 15.6564C20.8279 15.917 21.0341 16.2268 21.1751 16.5682C21.3162 16.9095 21.3894 17.2756 21.3906 17.6456L21.6684 77.8901C21.6708 78.6358 21.3807 79.352 20.8618 79.8814C20.343 80.4107 19.6378 80.71 18.9012 80.7134C18.1645 80.7167 17.4566 80.424 16.9329 79.8995C16.4092 79.3749 16.1125 78.6615 16.108 77.9157V77.9157Z" fill="#E6E6E6"/>
<path d="M28.0668 58.5975L27.9666 36.87C27.9631 36.1196 28.2527 35.3986 28.7716 34.8656C29.2906 34.3326 29.9964 34.0313 30.7337 34.0279C31.4711 34.0245 32.1796 34.3193 32.7035 34.8475C33.2273 35.3757 33.5236 36.094 33.527 36.8444L33.6272 58.5718C33.6307 59.3222 33.3411 60.0432 32.8222 60.5762C32.3032 61.1092 31.5974 61.4106 30.8601 61.414C30.1227 61.4174 29.4141 61.1226 28.8903 60.5944C28.3665 60.0662 28.0702 59.3479 28.0668 58.5975Z" fill="#E6E6E6"/>
<path d="M113.198 231.273L112.14 1.82516L111.213 1.82944L112.272 231.277L113.198 231.273Z" fill="#3F3D56"/>
<path opacity="0.15" d="M38.1527 35.0887C38.207 34.8837 39.5236 30.0514 43.2632 28.5026C45.7773 27.4612 48.7281 28.1724 52.0335 30.6163L51.4003 31.7186C48.4214 29.5161 45.8203 28.8489 43.6696 29.736C40.4771 31.0527 39.2763 35.4251 39.2646 35.469L38.1527 35.0887Z" fill="black"/>
</svg>
